<?xml version="1.0" encoding="utf-8"?>
<!-- Generator: Adobe Illustrator 26.0.3, SVG Export Plug-In . SVG Version: 6.00 Build 0)  -->
<svg version="1.1" id="Layer_1" xmlns="http://www.w3.org/2000/svg" xmlns:xlink="http://www.w3.org/1999/xlink" x="0px" y="0px"
	 viewBox="0 0 466.2 256" style="enable-background:new 0 0 466.2 256;" xml:space="preserve">
<style type="text/css">
	.st0{fill:#0A0A08;}
</style>
<g>
	<path class="st0" d="M460.2,43.5c-4.9-11.2-12.6-20.9-22.2-28.3C425.7,5.7,410.2,0,393.4,0H72.8C56,0,40.5,5.7,28.2,15.2
		C18.6,22.5,10.9,32.3,6,43.5C2.1,52.2,0,61.9,0,72v112c0,39.7,32.7,72,72.8,72h320.6c40.1,0,72.8-32.3,72.8-72V72
		C466.2,61.9,464.1,52.2,460.2,43.5z M392.7,35.9l-157.4,71.9c-1.4,0.6-3,0.6-4.4,0L73.5,35.9H392.7z M430,184
		c0,19.9-16.4,36.2-36.5,36.2H72.8c-20.1,0-36.5-16.2-36.5-36.2V72c0-4.8,0.9-9.3,2.6-13.5l177.5,81.1c5.3,2.4,11,3.6,16.7,3.6
		s11.4-1.2,16.7-3.6l177.5-81.1c1.7,4.2,2.6,8.7,2.6,13.5V184z"/>
</g>
</svg>
