<?xml version="1.0" encoding="utf-8"?>
<!-- Generator: Adobe Illustrator 26.0.3, SVG Export Plug-In . SVG Version: 6.00 Build 0)  -->
<svg version="1.1" id="Layer_1" xmlns="http://www.w3.org/2000/svg" xmlns:xlink="http://www.w3.org/1999/xlink" x="0px" y="0px"
	 viewBox="0 0 196.1 260.4" style="enable-background:new 0 0 196.1 260.4;" xml:space="preserve">
<style type="text/css">
	.st0{fill:#F26457;}
	.st1{fill:#283740;}
</style>
<g id="Layer_1_00000167398402326944364780000005553450885634522289_">
	<g>
		<rect x="25.4" class="st0" width="140.7" height="243.9"/>
		<g>
			<path class="st1" d="M43.1,108H0V91h104.3v17H61.2v116.8H43.1V108z"/>
		</g>
		<g>
			<path class="st1" d="M79.1,126.5h46.7c9.4,0,17.7,1.1,24.9,3.2c7.1,2.1,13.3,5,18.5,8.6s9.6,7.7,13,12.4
				c3.5,4.7,6.2,9.4,8.2,14.4c2,4.9,3.5,9.8,4.3,14.7c0.9,4.9,1.3,9.4,1.3,13.6c0,8.6-1.6,16.9-4.7,24.9c-3.2,8-7.8,15.1-14,21.4
				c-6.2,6.2-13.8,11.2-23,15c-9.1,3.8-19.7,5.7-31.7,5.7H79.1V126.5z M97.3,243.3h22.9c7.7,0,15-1,21.8-3.1
				c6.9-2.1,12.9-5.2,18-9.4c5.2-4.2,9.3-9.4,12.3-15.6c3-6.2,4.5-13.5,4.5-21.8c0-4.3-0.7-9.3-2.1-15c-1.4-5.7-4-11.2-7.8-16.3
				c-3.8-5.2-9.2-9.5-16-13.1s-15.6-5.4-26.5-5.4H97.3V243.3z"/>
		</g>
	</g>
</g>
<g id="Layer_2_00000016762607052817351700000009805551267837284273_">
</g>
</svg>
